<mxfile host="app.diagrams.net" modified="2023-06-25T20:06:57.640Z" agent="Mozilla/5.0 (Windows NT 10.0; Win64; x64; rv:109.0) Gecko/20100101 Firefox/114.0" version="21.5.0" etag="m_rK3y59iWkQRTrqj2O6" type="github">
  <diagram name="Page-1" id="usd6h4XYTh6OUvyuuUIi">
    <mxGraphModel>
      <root>
        <mxCell id="0" />
        <mxCell id="1" parent="0" />
      </root>
    </mxGraphModel>
  </diagram>
</mxfile>
